<svg width="71" height="71" fill="none" xmlns="http://www.w3.org/2000/svg">
  <g clip-path="url('#clip0_510_32256')">
    <path d="M24.121 48.941a3 3 0 0 1-4.242 0l-12.82-12.82a3 3 0 0 0-4.243 0l-1.445 1.445a3 3 0 0 0 0 4.243L19.88 60.316a3 3 0 0 0 4.242 0L68.63 15.81a3 3 0 0 0 0-4.243l-1.445-1.445a3 3 0 0 0-4.243 0l-38.82 38.82Z" fill="#fff"/>
  </g>
  <defs>
    <clipPath id="clip0_510_32256">
      <path fill="#fff" transform="translate(.5 .5)" d="M0 0h70v70H0z"/>
    </clipPath>
  </defs>
</svg>
