<svg width="30" height="30" fill="none" xmlns="http://www.w3.org/2000/svg">
  <path id="Vector" d="M17.605 8.003h-2.072c-2.64-.026-2.977 1.609-2.977 3.378v1.287h-1.165a.344.344 0 0 0-.373.232.347.347 0 0 0-.015.156v2.333a.347.347 0 0 0 .388.389h1.165v5.83a.35.35 0 0 0 .391.39h2.373c.229.026.415-.16.341-.39l.002-5.83h1.942a.345.345 0 0 0 .388-.39v-2.332a.347.347 0 0 0-.388-.388H15.66l.002-1.166c.075-.497.075-.416.536-.39h1.39c.107-.023.222-.01.303-.088.08-.08.127-.186.1-.3V8.392a.345.345 0 0 0-.387-.389Zm-.416 2.289-.974-.037c-1.206 0-1.307.655-1.307 1.326l-.003 1.474a.415.415 0 0 0 .415.416h1.896v1.502h-1.895a.415.415 0 0 0-.415.415l-.001 5.832h-1.572v-5.831c0-.23-.156-.415-.386-.415H11.78v-1.502h1.167a.413.413 0 0 0 .294-.122c.077-.078.091-.184.091-.294V11.38c0-1.743.352-2.573 2.2-2.573h1.656l.001 1.485Z" fill="#fff"/>
</svg>
