<svg width="31" height="31" fill="none" xmlns="http://www.w3.org/2000/svg">
  <path d="M18.603 2.63a1.188 1.188 0 0 1 1.454-.84 12.799 12.799 0 0 1 9.153 9.153 1.189 1.189 0 1 1-2.295.613 10.443 10.443 0 0 0-7.47-7.471 1.187 1.187 0 0 1-.842-1.455Zm-.346 6.205c2.047.546 3.362 1.861 3.908 3.908a1.187 1.187 0 1 0 2.295-.613c-.76-2.844-2.746-4.83-5.59-5.59a1.188 1.188 0 0 0-.613 2.295ZM30.42 22.988a8.351 8.351 0 0 1-8.295 7.262C10.339 30.25.75 20.66.75 8.875A8.351 8.351 0 0 1 8.012.58a2.375 2.375 0 0 1 2.467 1.413l3.135 7v.017a2.375 2.375 0 0 1-.189 2.24c-.027.04-.055.077-.085.114l-3.09 3.664c1.112 2.259 3.475 4.601 5.764 5.716l3.613-3.074c.035-.03.073-.058.111-.083a2.376 2.376 0 0 1 2.252-.208l.02.009 6.992 3.133a2.375 2.375 0 0 1 1.418 2.467Zm-2.358-.296h-.016l-6.976-3.125-3.615 3.074c-.035.03-.072.058-.11.083a2.375 2.375 0 0 1-2.338.17c-2.78-1.344-5.551-4.095-6.896-6.845a2.375 2.375 0 0 1 .148-2.33.902.902 0 0 1 .085-.115l3.094-3.668L8.32 2.96a.09.09 0 0 1 0-.018 5.967 5.967 0 0 0-5.195 5.933 19.02 19.02 0 0 0 19 19 5.969 5.969 0 0 0 5.938-5.185v.002Z" fill="#000"/>
</svg>
