<svg width="26" height="32" fill="none" xmlns="http://www.w3.org/2000/svg">
  <path d="M12.999 16c.87 0 1.616-.31 2.237-.93.62-.622.93-1.367.93-2.237 0-.87-.311-1.616-.932-2.237A3.043 3.043 0 0 0 13 9.666c-.871 0-1.617.311-2.238.932-.62.62-.93 1.366-.929 2.235 0 .871.31 1.617.931 2.238.62.62 1.366.93 2.236.93Zm0 11.638c3.22-2.956 5.607-5.641 7.164-8.056 1.557-2.416 2.336-4.56 2.336-6.432 0-2.876-.918-5.231-2.752-7.065-1.835-1.833-4.084-2.75-6.748-2.752-2.666 0-4.915.918-6.75 2.752-1.835 1.835-2.751 4.19-2.75 7.065 0 1.874.778 4.018 2.335 6.433s3.945 5.1 7.165 8.055Zm0 3.602a1.78 1.78 0 0 1-.634-.12 1.898 1.898 0 0 1-.554-.316c-3.853-3.404-6.729-6.564-8.629-9.48-1.9-2.917-2.85-5.642-2.85-8.174 0-3.958 1.274-7.112 3.82-9.46C6.7 1.34 9.649.167 13 .167c3.351 0 6.3 1.174 8.847 3.523 2.547 2.348 3.82 5.502 3.82 9.46 0 2.533-.95 5.258-2.85 8.175-1.9 2.916-4.777 6.076-8.63 9.48a1.898 1.898 0 0 1-.554.316c-.211.08-.422.119-.633.119Z" fill="#000"/>
</svg>
