<svg width="14" height="12" fill="none" xmlns="http://www.w3.org/2000/svg">
  <path id="Vector" d="M13.888.076a.33.33 0 0 0-.33-.054L.422 4.978a.657.657 0 0 0-.323.258.62.62 0 0 0 .07.765.669.669 0 0 0 .366.2l3.613.683v3.864c0 .15.046.296.133.42.087.124.21.22.353.276a.81.81 0 0 0 .595-.006.78.78 0 0 0 .255-.17L7.3 9.456l2.787 2.357a.794.794 0 0 0 .754.15.773.773 0 0 0 .334-.206.733.733 0 0 0 .184-.339L13.992.382a.301.301 0 0 0-.104-.306ZM.52 5.586a.13.13 0 0 1 .02-.087.137.137 0 0 1 .072-.056l11.32-4.27-7.583 5.239L.637 5.71a.139.139 0 0 1-.082-.042.13.13 0 0 1-.036-.083Zm4.593 5.335a.268.268 0 0 1-.283.058.258.258 0 0 1-.117-.092.244.244 0 0 1-.045-.139V7.23l2.241 1.894-1.796 1.797Zm5.742.384a.247.247 0 0 1-.062.113.26.26 0 0 1-.246.075.264.264 0 0 1-.118-.058L4.825 6.698 13.36.8l-2.506 10.505Z" fill="#fff"/>
</svg>
